<svg width="21" height="21" viewBox="0 0 23 21" fill="none" xmlns="http://www.w3.org/2000/svg">
<g clip-path="url(#clip0_4813_2952)">
<path d="M11.0801 13.1185C9.55024 13.1185 8.31006 14.2937 8.31006 15.7435V20.9935H13.8501V15.7435C13.8501 14.2937 12.6099 13.1185 11.0801 13.1185Z" fill="#B1BAD3"/>
<path d="M15.6967 15.7435V20.9935H19.39C20.9198 20.9935 22.16 19.8182 22.16 18.3685V10.3876C22.1602 9.93302 21.9738 9.4962 21.6402 9.16959L13.7937 1.13094C12.4092 -0.28861 10.0725 -0.375768 8.57458 0.93624C8.50342 0.998584 8.43487 1.06351 8.36912 1.13094L0.536471 9.16697C0.192732 9.49493 -0.000129778 9.93847 6.55204e-08 10.4007V18.3685C6.55204e-08 19.8182 1.24018 20.9935 2.77 20.9935H6.46332V15.7435C6.48059 13.3575 8.51338 11.4091 10.9677 11.353C13.5042 11.295 15.6773 13.2766 15.6967 15.7435Z" fill="#B1BAD3"/>
<path d="M11.0801 13.1185C9.55024 13.1185 8.31006 14.2937 8.31006 15.7435V20.9935H13.8501V15.7435C13.8501 14.2937 12.6099 13.1185 11.0801 13.1185Z" fill="#B1BAD3"/>
</g>
<defs>
<clipPath id="clip0_4813_2952">
<rect width="22.16" height="21" fill="white"/>
</clipPath>
</defs>
</svg>
