<svg width="21" height="22" viewBox="0 0 21 22" fill="none" xmlns="http://www.w3.org/2000/svg">
<path d="M8.60038 7.75171C8.477 7.75171 8.35363 7.71234 8.25037 7.63534C8.05175 7.48659 7.9695 7.22934 8.04387 6.99309L8.5925 5.23346L7.20562 4.10471C7.01925 3.94634 6.951 3.68821 7.03588 3.45896C7.11988 3.22971 7.33862 3.07659 7.58362 3.07659H9.3345L9.954 1.33796C10.038 1.11134 10.2568 0.959961 10.5 0.959961C10.7432 0.959961 10.962 1.11134 11.0469 1.33971L11.6664 3.07834H13.4172C13.6622 3.07834 13.881 3.23146 13.965 3.46159C14.049 3.69171 13.9799 3.94984 13.7926 4.10821L12.4128 5.23259L12.9833 6.97121C13.0611 7.20659 12.9824 7.46559 12.7855 7.61696C12.5886 7.76834 12.3182 7.77884 12.1109 7.64409L10.5044 6.59759L8.925 7.65459C8.827 7.72021 8.71325 7.75346 8.60038 7.75346V7.75171ZM11.375 8.83496H9.625C8.41663 8.83496 7.4375 9.81409 7.4375 11.0225V19.7725C7.4375 20.9808 8.41663 21.96 9.625 21.96H11.375C12.5834 21.96 13.5625 20.9808 13.5625 19.7725V11.0225C13.5625 9.81409 12.5834 8.83496 11.375 8.83496ZM18.8125 14.96H17.5C16.2916 14.96 15.3125 15.9391 15.3125 17.1475V19.7725C15.3125 20.9808 16.2916 21.96 17.5 21.96H18.8125C20.0209 21.96 21 20.9808 21 19.7725V17.1475C21 15.9391 20.0209 14.96 18.8125 14.96ZM3.5 12.335H2.1875C0.979125 12.335 0 13.3141 0 14.5225V19.7725C0 20.9808 0.979125 21.96 2.1875 21.96H3.5C4.70837 21.96 5.6875 20.9808 5.6875 19.7725V14.5225C5.6875 13.3141 4.70837 12.335 3.5 12.335Z" fill="#B1BAD3"/>
</svg>
