<svg width="21" height="21" viewBox="0 0 21 21" fill="none" xmlns="http://www.w3.org/2000/svg">
<g clip-path="url(#clip0_120_277)">
<path d="M16.625 7.5601H12.25C11.0901 7.56143 9.97807 8.00436 9.1579 8.79172C8.33773 9.57909 7.87635 10.6466 7.87496 11.7601V15.9601C7.87635 17.0736 8.33773 18.1411 9.1579 18.9285C9.97807 19.7158 11.0901 20.1588 12.25 20.1601H16.625C17.7849 20.1588 18.8968 19.7158 19.717 18.9285C20.5372 18.1411 20.9986 17.0736 21 15.9601V11.7601C20.9986 10.6466 20.5372 9.57909 19.717 8.79172C18.8968 8.00436 17.7849 7.56143 16.625 7.5601ZM12.25 12.6001C12.0769 12.6001 11.9077 12.5508 11.7638 12.4585C11.6199 12.3662 11.5078 12.235 11.4416 12.0816C11.3753 11.9281 11.358 11.7592 11.3918 11.5962C11.4255 11.4333 11.5089 11.2836 11.6312 11.1661C11.7536 11.0487 11.9095 10.9687 12.0793 10.9362C12.249 10.9038 12.4249 10.9205 12.5848 10.984C12.7447 11.0476 12.8813 11.1553 12.9775 11.2934C13.0736 11.4316 13.125 11.594 13.125 11.7601C13.125 11.9829 13.0328 12.1965 12.8687 12.3541C12.7046 12.5116 12.482 12.6001 12.25 12.6001ZM16.625 16.8001C16.4519 16.8001 16.2827 16.7508 16.1388 16.6585C15.9949 16.5662 15.8828 16.435 15.8166 16.2816C15.7503 16.1281 15.733 15.9592 15.7668 15.7962C15.8005 15.6333 15.8839 15.4836 16.0062 15.3661C16.1286 15.2487 16.2845 15.1687 16.4543 15.1362C16.624 15.1038 16.7999 15.1205 16.9598 15.184C17.1197 15.2476 17.2563 15.3553 17.3525 15.4934C17.4486 15.6316 17.5 15.794 17.5 15.9601C17.5 16.1829 17.4078 16.3965 17.2437 16.5541C17.0796 16.7116 16.857 16.8001 16.625 16.8001ZM13.65 4.2001L10.5603 1.22818C9.73926 0.442288 8.6271 0.000976563 7.46765 0.000976562C6.30819 0.000976563 5.19604 0.442288 4.37496 1.22818L1.27921 4.2001C0.460039 4.9884 0 6.05643 0 7.16992C0 8.28341 0.460039 9.35143 1.27921 10.1397L4.37496 13.1041C4.86442 13.5758 5.46451 13.9281 6.12496 14.1314V11.7601C6.12681 10.2012 6.77272 8.7066 7.92098 7.60428C9.06923 6.50195 10.6261 5.88188 12.25 5.8801H14.7236C14.5108 5.24574 14.1426 4.66963 13.65 4.2001ZM4.37496 8.4001C4.2019 8.4001 4.03273 8.35083 3.88883 8.25853C3.74494 8.16623 3.63279 8.03504 3.56656 7.88155C3.50034 7.72806 3.48301 7.55917 3.51677 7.39622C3.55053 7.23328 3.63387 7.08361 3.75624 6.96613C3.87861 6.84865 4.03452 6.76865 4.20425 6.73624C4.37399 6.70383 4.54992 6.72046 4.70981 6.78404C4.86969 6.84762 5.00635 6.95528 5.10249 7.09342C5.19864 7.23156 5.24996 7.39396 5.24996 7.5601C5.24996 7.78288 5.15777 7.99654 4.99368 8.15407C4.82958 8.3116 4.60702 8.4001 4.37496 8.4001ZM7.87496 5.0401C7.7019 5.0401 7.53273 4.99083 7.38883 4.89853C7.24494 4.80623 7.13279 4.67504 7.06656 4.52155C7.00034 4.36806 6.98301 4.19917 7.01677 4.03622C7.05053 3.87328 7.13387 3.72361 7.25624 3.60613C7.37861 3.48865 7.53452 3.40865 7.70425 3.37624C7.87399 3.34383 8.04992 3.36046 8.20981 3.42404C8.36969 3.48762 8.50635 3.59528 8.60249 3.73342C8.69864 3.87156 8.74996 4.03396 8.74996 4.2001C8.74996 4.42288 8.65777 4.63654 8.49368 4.79407C8.32958 4.9516 8.10702 5.0401 7.87496 5.0401Z" fill="#B1BAD3"/>
</g>
<defs>
<clipPath id="clip0_120_277">
<rect width="21" height="20.16" fill="white"/>
</clipPath>
</defs>
</svg>
