<svg width="21" height="22" viewBox="0 0 21 22" fill="none" xmlns="http://www.w3.org/2000/svg">
<g clip-path="url(#clip0_114_1839)">
<path d="M15.9598 15.8349C15.0749 15.8346 14.2058 15.5913 13.4398 15.1296C12.6739 15.5913 11.8047 15.8346 10.9198 15.8349H9.23984C8.35372 15.8337 7.4839 15.5867 6.71984 15.1191C5.95582 15.5867 5.08598 15.8338 4.19984 15.8349H3.35984C2.47417 15.8346 1.60448 15.5891 0.839844 15.1235V19.3349C0.839844 20.0311 1.10534 20.6988 1.57793 21.191C2.05053 21.6833 2.6915 21.9599 3.35984 21.9599H16.7998C17.4682 21.9599 18.1092 21.6833 18.5818 21.191C19.0543 20.6988 19.3198 20.0311 19.3198 19.3349V15.1244C18.555 15.5893 17.6854 15.8345 16.7998 15.8349H15.9598Z" fill="#B1BAD3"/>
<path d="M14.28 0.959961V6.20996H12.6V0.959961H7.56V6.20996H5.88V0.959961H1.848L0.02016 9.52009L0 10.585C0 11.5132 0.353999 12.4035 0.984121 13.0598C1.61424 13.7162 2.46887 14.085 3.36 14.085H4.2C4.67871 14.0834 5.15149 13.9745 5.58629 13.7659C6.02108 13.5573 6.40773 13.2537 6.72 12.8757C7.03227 13.2537 7.41892 13.5573 7.85371 13.7659C8.28851 13.9745 8.76129 14.0834 9.24 14.085H10.92C11.397 14.0852 11.8685 13.9794 12.3031 13.7747C12.7376 13.5699 13.1253 13.2709 13.44 12.8976C13.7547 13.2709 14.1424 13.5699 14.5769 13.7747C15.0115 13.9794 15.483 14.0852 15.96 14.085H16.8C17.6911 14.085 18.5458 13.7162 19.1759 13.0598C19.806 12.4035 20.16 11.5132 20.16 10.585V9.70996L18.312 0.959961H14.28Z" fill="#B1BAD3"/>
</g>
<defs>
<clipPath id="clip0_114_1839">
<rect width="20.16" height="21" fill="white" transform="translate(0 0.959961)"/>
</clipPath>
</defs>
</svg>
