<svg xmlns="http://www.w3.org/2000/svg" viewBox="0 0 100 100" width="21" height="21" fill="none"><g><path d="M78.46 7.26a4.735 4.735 0 0 0-4.735-4.735h-47.5A4.735 4.735 0 0 0 21.49 7.26H7.235A4.735 4.735 0 0 0 2.5 11.995v.025c0 13.521 7.52 25.675 19.623 31.726l2.481 1.24c3.216 6.888 8.685 12.509 15.521 15.85 3.09 1.52 5.14 4.508 5.14 7.951a8.744 8.744 0 0 1-4.254 7.495L23.814 86.6a4.735 4.735 0 0 0-2.299 4.06v2.08a4.735 4.735 0 0 0 4.735 4.735h47.5a4.735 4.735 0 0 0 4.735-4.735v-2.08a4.735 4.735 0 0 0-2.299-4.06L58.989 76.282a8.744 8.744 0 0 1-4.254-7.495c0-3.418 2.05-6.43 5.14-7.95 6.81-3.342 12.305-8.963 15.52-15.85l2.482-1.241C89.98 37.695 97.5 25.541 97.5 12.02v-.025a4.735 4.735 0 0 0-4.735-4.735H78.46zm-66.035 9.495h9.065V31.01c0 .38.076.76.076 1.14a25.685 25.685 0 0 1-9.14-15.395zM78.384 32.15c.025-.38.075-.76.075-1.14V16.755h9.065a25.685 25.685 0 0 1-9.14 15.395z" fill="#B1BAD3"/></g></svg>
